<svg xmlns="http://www.w3.org/2000/svg" viewBox="0 0 199.16 120.25"><defs><style>.cls-1{fill:#764abc;}.cls-2,.cls-3{fill:#fff;}.cls-2{opacity:0.58;}</style></defs><g id="Layer_2" data-name="Layer 2"><g id="Layer_1-2" data-name="Layer 1"><rect class="cls-1" width="199.16" height="120.25" rx="16.25"/><path class="cls-2" d="M41.53,84.14a20.82,20.82,0,0,1-8.15-1.5,15.66,15.66,0,0,1-6-4.35,19.51,19.51,0,0,1-3.68-6.85,29.78,29.78,0,0,1-1.27-9,29.44,29.44,0,0,1,1.27-9,19.17,19.17,0,0,1,3.68-6.76,16,16,0,0,1,6-4.32,20.82,20.82,0,0,1,8.15-1.5A18,18,0,0,1,51.86,43.7a15.58,15.58,0,0,1,5.89,7.68L49.44,55.1a8.64,8.64,0,0,0-2.65-4.32,7.7,7.7,0,0,0-5.26-1.7q-4.28,0-6.37,2.69a11.16,11.16,0,0,0-2.1,7v7.52a11,11,0,0,0,2.1,7Q37.26,76,41.53,76a7.89,7.89,0,0,0,5.62-1.86,12.58,12.58,0,0,0,3.08-4.63L58,73.22a16.24,16.24,0,0,1-6.25,8.19A18.33,18.33,0,0,1,41.53,84.14Z"/><path class="cls-3" d="M65.9,83.19V41.88H76v8.55h.39a12.81,12.81,0,0,1,1.23-3.21,9.83,9.83,0,0,1,2.17-2.73A10.62,10.62,0,0,1,83,42.59a12.13,12.13,0,0,1,4.31-.71h2.22v9.58H86.4q-5.15,0-7.75,1.5A5.23,5.23,0,0,0,76,57.87V83.19Z"/><path class="cls-3" d="M120.75,76.31h-.39a10.62,10.62,0,0,1-4.2,5.7,12.37,12.37,0,0,1-7.2,2.13q-7.84,0-12-5.62T92.81,62.46q0-10.37,4.16-16t12-5.58a12.5,12.5,0,0,1,7.2,2.1,10.38,10.38,0,0,1,4.2,5.66h.39V24.63h10.13V83.19H120.75Zm-8.55-.56A10.29,10.29,0,0,0,118.3,74a5.75,5.75,0,0,0,2.45-5V55.89a5.74,5.74,0,0,0-2.45-4.83,10,10,0,0,0-6.1-1.82,8.19,8.19,0,0,0-6.37,2.65A10.12,10.12,0,0,0,103.42,59V66.1a10,10,0,0,0,2.41,7A8.26,8.26,0,0,0,112.2,75.75Z"/><path class="cls-3" d="M141.41,84.14a6.36,6.36,0,0,1-4-1.14A3.63,3.63,0,0,1,136,80,4.19,4.19,0,0,1,137,77.1a3.51,3.51,0,0,1,2.73-1.19,2.83,2.83,0,0,1,2.21.87,3.06,3.06,0,0,1,.79,2.14,3.71,3.71,0,0,1-.43,1.82,3.2,3.2,0,0,1-1.07,1.19l.24.31h.23q3.33,0,7.17-4.91a63.69,63.69,0,0,0,7.71-14L152.65,45.6l-1.35-.24-8.39,7.76-1.26-1.18,5.46-5.66c.84-.89,1.58-1.64,2.21-2.24A17.77,17.77,0,0,1,151,42.63a5,5,0,0,1,1.31-.71,3.91,3.91,0,0,1,1.23-.2,3,3,0,0,1,3.32,2.61l2.77,14.88h.56q1.1-2.52,2.69-5.81a29,29,0,0,1,3.72-5.9,18.57,18.57,0,0,1,4.35-4.23,8.75,8.75,0,0,1,5-1.55,6.33,6.33,0,0,1,4,1.15,3.6,3.6,0,0,1,1.47,3,4.25,4.25,0,0,1-1.07,2.93A3.5,3.5,0,0,1,177.58,50a2.86,2.86,0,0,1-2.22-.87,3,3,0,0,1-.79-2.13,3.68,3.68,0,0,1,.43-1.82,3.12,3.12,0,0,1,1.07-1.19l-.23-.32h-.24q-3.33,0-7.16,4.88a62.56,62.56,0,0,0-7.72,14l4,17.77,1.34.23,8.39-7.75,1.27,1.18-5.46,5.66L168,81.83a14.64,14.64,0,0,1-1.62,1.41A5,5,0,0,1,165,84a3.84,3.84,0,0,1-1.22.19,3,3,0,0,1-3.33-2.61l-2.77-14.88h-.55q-1.11,2.53-2.69,5.82a29.87,29.87,0,0,1-3.72,5.9,19,19,0,0,1-4.36,4.23A8.74,8.74,0,0,1,141.41,84.14Z"/></g></g></svg>